<mxfile host="app.diagrams.net" agent="Mozilla/5.0 (iPad; CPU OS 18_2 like Mac OS X) AppleWebKit/605.1.15 (KHTML, like Gecko) Version/18.2 Mobile/15E148 Safari/604.1" version="26.2.7">
  <diagram name="Page-1" id="qdt3PWCUTTOA-1hRKmJO">
    <mxGraphModel>
      <root>
        <mxCell id="0" />
        <mxCell id="1" parent="0" />
      </root>
    </mxGraphModel>
  </diagram>
</mxfile>
